<?xml version="1.0" encoding="UTF-8"?>
<svg id="Layer_1" xmlns="http://www.w3.org/2000/svg" version="1.1" viewBox="0 0 3967.61 4031.92">
  <!-- Generator: Adobe Illustrator 30.4.0, SVG Export Plug-In . SVG Version: 2.1.4 Build 226)  -->
  <defs>
    <style>
      .st0 {
        fill: #d4ad37;
      }
    </style>
  </defs>
  <path class="st0" d="M1056.19,3794.67c-188.96-102.69-374.74-248.42-518.11-404.15-212.3-230.6-371.18-505.67-456.64-809.2C24.55,2379.26-5.72,2174.29.9,1965.21c13.76-434.74,156.05-850.6,420.88-1194.41C748.44,346.73,1225.56,71.12,1759.27,12.73,1820.33,6.05,1875.49-.07,1936.5,0l91.62.11c98.99.12,190.57,9.9,289.6,26.12,263.93,43.22,511.14,138.95,735.25,284.85,283.89,184.83,517.4,437.31,676.12,737.07,261.45,493.77,310.52,1079.78,134.53,1610.62-98.99,298.59-265.83,565.13-486.81,786.15l-39.99,40c-613.82,589.19-1528.93,718.24-2280.63,309.75ZM1941.71,3967.05c152.03,4.37,292.17-10.77,440.41-42.88,382.71-82.88,731.7-283.75,998.19-571.2,406.68-438.66,588.01-1014.97,510.56-1608.3-70.97-543.72-364.36-1030.11-814.06-1343.48C2622.26,84.45,2047.44-19.82,1509.47,118.84c-252.32,65.03-483.25,178.34-689.39,337.09-113.64,87.51-214.24,182.22-305.06,293.13-143.43,175.14-255.08,365.47-332.65,578.9C-10.22,1857.81,26.9,2442.52,295.2,2940.35c329.46,611.33,948.95,1006.67,1646.52,1026.7Z"/>
  <path class="st0" d="M1378.53,3822.04c-229.01-72.26-481.54-234.7-656.89-397.79-206.21-191.78-367.29-427.06-476.01-687.2-64.68-154.75-101.13-308.98-125.39-473.53-25.76-174.8-24.45-342.36,1.46-517.82,41.45-280.69,129.29-540.36,285.04-779.61,196.25-301.45,468.58-543.02,795.85-694.54,401.68-185.97,866.27-220.56,1288.56-101.99,755.43,212.1,1296.57,877.81,1366.17,1657.39,11.27,126.17,15.86,249.97.57,378.91-35.78,301.71-113.36,544.64-270.96,804.34-82.39,135.76-178.75,255.63-290.97,367.55-273.56,272.81-622.63,457.17-1004.26,522.47-209.13,35.78-415.12,36.46-622.35-2.52-66.64-12.54-127.53-24.14-191.61-44.36l-99.22-31.3ZM3751.76,2589.73c66.17-204.93,102.77-473.5,86.03-684.57-9.42-118.85-23.23-231.07-51.3-347.24-72.91-301.66-213.19-574.89-418.06-808.24l-148.17-147.08c-54.19-53.79-111.71-96.56-174.49-140.12C2578.82,138.49,2009.31,45.51,1461.54,203.74c-225.42,65.12-429.3,172.73-613.87,315.85-133.32,103.38-245.57,219.55-345.91,355.39-205.6,278.34-321.35,586.93-360.65,931.93-42.05,369.23,28.34,746.32,200.2,1075.65,215.12,412.21,573.26,739.62,1012.14,902.53,300.69,111.61,628.31,142.11,944.83,86.48,687.32-120.79,1241.05-623.98,1453.47-1281.84Z"/>
  <path class="st0" d="M616.89,1599.43l40.12,59.49c-75.52,276.12-70.34,567.18,18.57,840.72l78.68,188.09c46.33,110.76,121.44,203.3,197.98,296.18l134.01,134.27c467.75,411.6,1154.82,454.86,1668.14,101.26,255.29-175.86,445.53-430,543.51-728.28,99.28-302.25,88.84-628.87-10.99-929.11l41.96-54.54c110.05,338.03,130.22,651.32,25.94,992.33l-54.39,138.96c-33.09,84.55-75.92,159.53-127.18,235.38-63.49,93.95-135.84,174.99-217.41,253.32-332.12,318.98-798.46,451.66-1251.21,358.89-232.23-43.7-446.25-150.64-625.92-300.81-461.9-386.06-643.21-1014.7-461.82-1586.16Z"/>
  <path class="st0" d="M3150.8,1332.35c-395.98-657.68-1245.51-868.97-1895.1-450-183.77,118.53-338.72,279.33-448.1,473.71l-33.48-23.56c-14.93-10.51-5.19-26.8,2.33-38.6,152.68-239.67,345.94-419.65,601.32-545.45l157.36-64.95c357.01-121.89,744.32-92.68,1080.6,75.52,168.45,84.25,351.85,231.09,466.47,379.73,32.03,41.53,63.64,76.35,88.6,123.63,4.8,9.09,25.63,22.65,19.39,35.13-7.7,15.4-25.57,24.12-39.4,34.86Z"/>
  <path class="st0" d="M2288.31,567.19l-77.9-6.61c-46.18-45.7-84.35-95.13-128.11-142.68l-83.74-90.99-7.79,216.26-99.69-4.34,17.02-349.93,86.84,2.77,202.86,227.47,17-210.28,98.95,7.81-13.2,143.86-12.25,206.65Z"/>
  <path class="st0" d="M1811.39,864.16c-201.47,32.55-381.48,108.39-540.06,232.78-14-3.02-31.52-28-24.29-39.66,19.87-22.76,45.32-38.38,71.69-55.83,437.16-289.23,995.98-264.66,1412.01,55.73-3.26,19.33-13.94,30.35-26.66,40.77-256.12-192.58-572.35-285.54-892.7-233.78Z"/>
  <path class="st0" d="M1062.28,867.72l-71.14,56.92c-18.2-7.53-25.36-26.64-37.71-43.09l-174.68-232.72,79.48-59.36c30.85,39.91,56.25,80.89,96.06,122.63l64.83-236.13,90.67-58.2-56.27,218.23,262.56,55.72-96.72,66.74-189.22-38.72-24.09,73.19,56.24,74.78Z"/>
  <path class="st0" d="M1507.33,548.67c-16.6,4.75-40.94,6.4-45.04,23.04l-17,68.98c-30.97,12.7-61.38,22.28-94.79,27.39l81.81-386.6,102.27-31.88,286.32,287.74-100.18,26.95-58.27-60-155.11,44.38ZM1611.63,449.8l-106.69-112.12-28.95,150.82,135.64-38.7Z"/>
  <path class="st0" d="M3779.81,2034.09c-17.01,72.38-52.23,107.94-127.66,122.95l-25.63,186.31c-4.92,6.77-31.53-1.47-30.27-10.32l25.33-176.99c-90.29-19.07-141.02-106.61-111.26-189.66,15.96-44.52,53.91-82.24,110.25-89.77-13.82-172.61-73.98-415.08-155.91-563.69-11.1-20.14-3.76-43.58,8.46-56.03,102.16,187.12,161.13,406.26,179.27,616.3,66.99,8.93,116.81,54.26,125.81,123.08-9.48,2.55-29.44,2.87-38.07-5.88-14.66-34.6-36.79-66.81-76.81-74.55-61.4-11.87-115.15,32.25-119.89,93.38-4.26,54.98,39.51,110.56,102.28,108.17,43.6-1.67,80.48-38.56,94.27-77.73,6.47-6.67,21.46-7.93,39.8-5.56Z"/>
  <path class="st0" d="M3212.53,671.06l-153.9,48.52c-33.21,10.47-74.08,14.05-101.11,37.47l-69.3,93.21-79.81-56.09c19.39-38.83,43.18-67.46,72.08-99.8l-17.21-278,91.01,61.57,8.46,188.42,80.05-28.88,93.84-26.7,75.89,60.27Z"/>
  <path class="st0" d="M257.39,2133.48l-23.52-4.54c5.12.99-39.41-55.19-38.82-93.43,11.98-3.48,32.83-1.8,38.81,5.31,9.17,30.04,28.23,53.23,49.68,65.3,30.94,17.41,66.21,13.12,94.1-2.83,30.59-17.5,50.97-46.28,52.41-77.54,1.58-34.34-10.8-65.81-37.61-88.03-28.36-23.5-59.12-31.34-98.9-19.32-25.74,7.78-50.53,36.58-58.37,72.64-14.01,4.09-27.42,3.46-42.05-1.58,13.01-63.96,60.6-106.6,123.94-116.27,18.95-177.71,58.33-348.04,128.93-510.4,9.96-22.91,20.12-41.16,24.68-63.07,6.39,16.53,19.9,38.08,13.69,52.94-70.22,167.98-118.02,342.95-134.3,522.7,67.87,11.38,114.25,63.98,116.88,130.61,2.95,74.7-41.7,136.81-116.79,147.96,5.96,63.61,13.2,119.05,25.98,177.49-9.54,7.93-20.29,10.84-32.37,11.29l-23.33-183.28c-22.03-6.41-39.36-12.87-63.04-25.95Z"/>
  <path class="st0" d="M2718.47,648.19c-4.66,19.83-14.61,40.91-25.51,65.25l-94.79-38.44-201.73-80.15,124.16-318.28,91,30.83-96.74,258.85,203.62,81.94Z"/>
  <path class="st0" d="M2654.71,3546.56l36.42,95.53c3.78,9.91-19.53,20.3-22.25,13.67l-55.01-133.94c7.88-8.21,27.48-19.93,37.44-15.71l70.56,71.96-10.29-108.51,36.39-15.5,70.95,128.79c-7.53,6.1-14.7,10.58-25.52,14.7l-52.94-96.17,11.24,110.56c.66,6.52-11.39,14.04-17.47,12.8l-79.52-78.2Z"/>
  <path class="st0" d="M3350.68,2943.7l87.6,55.43c5.04,4.64-9.16,24.9-15.34,22.23l-116.25-78.87c-2.84-10.18,8.76-34.48,17.79-32.56l99.18,21.16-62.85-80.58c-5.71-7.32,5.4-25.62,14.07-31.61l128.3,68.94c4.29,5.09-6.82,25.16-13.32,23.69-25.01-15.09-50.13-36.08-81.95-43.08l57.31,74.15c4.18,5.4,1.53,15.98-1.42,19.8-11.91,15.41-63.81-19.77-113.11-18.71Z"/>
  <path class="st0" d="M2988.68,3471.93l-84.64-115.05c1.07-17.62,30.95-25.06,47.78-18.16l81.73,33.54-50.84-75.05c-3.06-4.51,9.33-17.23,18.44-18.54l88.49,116.29c-3.91,9.14-15.28,19.5-24.28,21.62l-115.79-46.35,64.19,85.26c-7.62,8.81-14.86,12.7-25.08,16.45Z"/>
  <path class="st0" d="M905.87,3415.65c-14.13,3.12-27.53-20.52-24.31-36.93l20.66-105.43-72.31,80.78c-7.05-4.99-12.3-10.78-17.52-19.59l93.31-107.32c5.28-6.08,19.07,3.49,22.71,8.31,3.83,5.07,4.86,14.9,3.35,24.85l-14.93,98.79,62.13-70.66c5.85-6.65,25.41,10.98,18.4,19.25l-91.5,107.95Z"/>
  <path class="st0" d="M3584.51,2725.15l-137.15-50.05c-1.95-7.82,1.38-27.98,9.47-29.78l113.01-25.1-95.31-32.05c2-10.26,3.53-15.87,8.36-24.69l134.08,45.93c10.44,5.64,9.63,27.29-1.78,29.51l-116.53,22.74,94.89,39.46c-.74,6.76-1.99,13.62-9.05,24.03Z"/>
  <path class="st0" d="M444.73,2845.73c-6.43,2.29-15-18.03-10.4-24.34,15-20.62,35.35-29.68,37.98-40.48,1.84-7.56-7-28.67-15.09-25.15l-46.1,20.05c-8.45,3.68-18.34-14.66-18.52-27.57,45.59-16.9,90.25-36.3,136.47-61.74,30.84,38.28,47.35,86.12,17.59,108.06-15.2,11.2-31.56,10.7-50.16,1.96l-51.76,49.21ZM485.43,2747.08c1.62,21.3,15.59,25.83,22.94,27.4,6.85,1.46,21.93-.08,25.31-8.76,5.2-13.36,2.59-28.66-6.99-41.03-12.09,0-42.17,10.47-41.27,22.39Z"/>
  <path class="st0" d="M1140.23,3577.79c-50.3-17.17,14.93-66.04-35.55-91.15l-32.98,49.53c-9.35-2.42-17.49-7.19-24.77-14.38l78.34-126.94c55.15,25.11,84.88,42.77,70.15,88.27-4.2,12.98-26.45,16.07-36.66,23.01l-18.53,71.66ZM1165.08,3472.74c13.95-18.98-6.85-42.01-24.33-42.39-10.38,11.85-17.56,22.57-21.39,37.22,9.36,11.86,34.92,19.86,45.72,5.17Z"/>
  <path class="st0" d="M2367.4,3700.09l13.99,57.02-29.37,5.65-36.42-140.61c46.78-23.82,89.64-33.02,110.22,4.71,8.58,15.72-1.4,30.86-10.94,43.58,15.65,20.79,35.41,41.71,41.66,66.05-47.79,28.38-34.4-68.4-89.15-36.4ZM2369.54,3672.77c21.65-2.1,29.79-14.01,30.55-22.43.93-10.42-5.18-20.49-11.58-23.56-8.81-4.21-23.27-6.04-32.29,2.89-10.26,10.15-1.82,44.56,13.33,43.1Z"/>
  <path class="st0" d="M689.85,3215.83c-47.03-35.78,36.18-55.91.11-98.78-19.34,5.11-32.25,22.52-48.81,34.94-5.66,3.61-19.59-15.56-16.99-22.97l113.76-93.27c39.28,37.91,63.76,72.31,35.67,105.4-9.57,11.27-29.08,8.05-43.11,9.03-13.49,20.8-23.38,50.5-40.62,65.65ZM757.82,3112.18c4.54-12.68-4.83-35.47-17.41-35.98-11.15-.46-30.33,14.7-33.13,24.71-3.73,13.35,11.11,21.68,19.47,23.46,9.16,1.95,25.7,2.76,31.06-12.19Z"/>
  <path class="st0" d="M1685.39,3778.4c-41.9-6.31-22.51-32.59-34.08-65.32-2.72-7.7-20.3-16.25-26.58-8.67-11.57,13.97-10.81,34.64-15.47,52.63-11.06,1.03-20.08-1.62-30.31-5.7l33.51-143.71c55.42,3.32,97.47,15.71,95.01,61.15-.82,15.17-19.15,24.41-31.67,33.32,4.88,24.88,15.55,50.53,9.59,76.31ZM1675.56,3662.5c3.19-19.04-27.01-34.04-37.14-24.13-9.94,9.71-10.7,27.55-9.54,37.3,16.47,11.68,42.79,10.08,46.68-13.17Z"/>
  <path class="st0" d="M3256.29,3148.6c-6.19,3.05-11.06,8.5-14.01,11.39-4.65,4.57-20.06-5.61-15.58-11.4l30.99-40.06,57.7,53.31c-13.19,30.34-35.62,64.77-72.59,72.01-50.35,9.87-100.7-40.88-91.38-91.32,6-32.48,31.85-57.81,56.9-70.13,40.13,23.57-38.45,34.08-31.17,85.38,4.16,29.35,38.5,52.55,66.96,46.97,17.65-3.46,29.02-20.06,38.61-30.88-7.93-10.33-14.73-20.15-26.44-25.28Z"/>
  <path class="st0" d="M1832.9,3648.59c6.89-5.02,19.39-2.85,29.88,1.24l-14.36,104.56c-4.12,30.03-37.57,42.67-65.39,38.55-25-3.7-53.59-22.7-50.63-53.48l10.19-105.91c8.67-1,18.55-.09,29.9,4.4l-10.06,99.81c-1.73,17.15,12.04,30.1,26.34,31.5,13.86,1.36,30.4-8.66,32.42-25.13l11.72-95.53Z"/>
  <path class="st0" d="M2909.8,3488.79c-10.85-8.96-43.91,11.39-46.5,24.5l8.14,29.78c2.38,8.69-9.42,19.21-24.65,21.44l-37.98-149.07c10.78-8.34,19.74-14.81,33.67-19.84l120.93,97.28c-4.83,8.48-14.32,12.8-22.78,14.56-11.28,2.35-16.66-6.93-30.84-18.64ZM2888.14,3464.57l-50.32-35.4,16.99,57.82c13.26-6.23,20.56-9.83,33.33-22.42Z"/>
  <path class="st0" d="M435.25,2681.16c-6.19-14.81-6.27-34.68-17.72-46.9-6.3-6.72-33.22,2.4-34.54,11.6l14.17,57.5c-8.78,5.33-13.09,6.64-21.18,6l-31.97-85.28,142.87-51.75,31.59,80.85c1.92,4.92-14.94,16.6-20.48,12.22-9.51-15.65-10.15-40.47-25.38-51.65-7.05-5.18-23.13,2.84-27,8.53-8.55,12.58,14.38,36.12,12.47,50.92-.88,6.79-20.2,14.27-22.84,7.95Z"/>
  <path class="st0" d="M1241.94,3584.2l-16.25-7c-11.62-5.01-21.44,25.86-30.16,27.03-8.12,1.09-18.18-3.79-26.12-12.6l52-54.41,53.32-54.53c8.33-5.29,35.37,9.95,34.01,19.92l-19.84,145.29c-3.93,4.65-17.7-1.33-21.96-4.08-19.19-12.4,14.53-42.59-24.99-59.61ZM1269.68,3573.63l12.67-59.27-41.38,40.67c9.5,9.17,13.67,14.65,28.71,18.59Z"/>
  <path class="st0" d="M2164.97,3646c5.11-4.77,19.06-5.47,25.81-4.17l15.24,93.5c3,18.39,19.98,28.29,34.89,26.63,19.64-2.18,30.26-19.82,26.64-40.38l-15.9-90.23,29.66-5.06,14.71,95.39c5.48,35.57-17.26,60.5-52.37,64.58-32.19,3.74-60.12-13.29-65.04-46.96l-13.64-93.29Z"/>
  <path class="st0" d="M3121.05,3315.14c3.76,13.95,9.3,21.77,16.87,33.61-6.16,9.32-13.33,16.55-23.39,23.69l-61.04-140.39c1.39-11.12,13.99-24.4,24.39-28.73l135.5,76.41c1.32,10.25-10.53,18.55-17.81,19.14-10.51.85-19.29-7.09-31.03-11.25-16.06-5.69-34.95,15.7-43.49,27.51ZM3090.86,3240.2c-4.09-6.22-11.73.92-4.85,5.08l4.85-5.08ZM3093.6,3242.96l-6.36,5.48,19.26,45.45c13.84-7.05,21.12-12.47,31.46-22.57l-44.36-28.36Z"/>
  <path class="st0" d="M3357.32,1142.51c-50.92-74.73-103.74-143.42-164.04-209.52,6.88-10.58,13.33-14.79,26.27-20.72l157.39,197.58c7.02,8.81-11.66,28.71-19.62,32.67Z"/>
  <path class="st0" d="M608.28,1148.09c-9.41,1.46-20.69-18.95-16.36-27.42,30.88-60.29,156.77-208.2,163.34-207.46,6,.67,13.22,7,16.75,12.99,5.32,9.03-2.07,14.12-8.82,22.31l-98.26,119.3-56.65,80.29Z"/>
  <path class="st0" d="M3313.11,3064.69l32.34,24.77,38.16-46.97c9.63,5.25,15.07,6.94,19.98,14.55l-57.58,74.14-117-88.63,51.3-74.4c7.8,5.17,11.1,7.73,12.42,9.38,2.07,2.58.94,9.49-2.13,13.83l-28.41,40.17c9.41,9.23,17.44,14.74,28.37,20.94l33.26-39.26c4.26-5.02,10.81-2.9,13.74-1.1,6.03,3.72,11.78,12.45,6.12,18.71l-30.58,33.86Z"/>
  <path class="st0" d="M3482.26,2789.13c13.69,10.08,25.55,16.11,40.2,18.75l24.76-54.39c10.5,3.99,15.62,7.24,22.34,13.46l-39.96,81.53-137.37-65.36,36.58-78.28c3.05-6.53,23.64,2.07,20.27,13.38-4.92,16.51-14.15,27.92-23.48,43.61,11.39,9.6,23.16,15.2,37.24,16.73,6.46-18.12,10.3-32.08,20.9-47.45l21.27,11.93-22.75,46.1Z"/>
  <path class="st0" d="M426.45,2488.44c-26.18-4.92-8.62,56.51-38.78,80.21-10.25,8.05-30.45,12.86-44.53,3.37-27.34-18.43-37.18-53.23-34.91-84.67,10.08-2.92,16.68-4.18,28.84-1.47-5.46,17.26-4.62,51.71,16.8,58.44,32.91,10.35,14.89-54.43,46.77-77.94,14.02-10.34,34.49-11.23,47.64.98,20.5,19.04,24.81,48.49,25.85,72.32-12.16,1.09-18.25,3.12-29.42,1.24,5.69-16.98,3.12-48.47-18.26-52.49Z"/>
  <path class="st0" d="M634.65,2894.23c11.56-2.19,22.58,15.71,17.83,26.61l-149.48,24.84c-16.99,2.82-27.88-22.94-18.26-33.81l100.91-114.01c5.97,3.05,18.57,20.65,12.98,26.99l-80.74,91.52,116.77-22.13Z"/>
  <path class="st0" d="M643.39,3050.78l-29.14-43.61c-14.81,8.1-25.04,15.85-36.34,27.04l32.94,47.85c3.59,5.22-12.18,18.84-14.97,14.9l-54.26-76.69,124.32-85.58c18.85,24.91,36.97,47.01,47.26,73.39,1.87,4.79-14.88,11.98-18,7.64l-12.02-16.73c-6.97-9.71-14.6-21.41-24.31-20.86-9.57.54-27.76,13.72-22.01,22.06l27.36,39.58c3.69,5.34-15.94,18.31-20.81,11.01Z"/>
  <path class="st0" d="M2504.63,3653.23c-2.47,11.18,6.85,28.1,12.73,37.38l56.69-20.22c8.19,6,11.7,22.52,7.18,24.7l-88.25,29.53-45.6-142.69,82.22-27.67c6.18-2.08,12.24,19.68,5.44,22.17l-53.85,19.7,15.52,36.1,49.58-15.36c5.92-1.83,10.69,15.46,4.5,17.93l-46.16,18.43Z"/>
  <path class="st0" d="M1424.18,3665.43c-23.94,48.85-101.38,9.09-102.21-7.58-.35-7.04,9.74-21.16,14.97-16.53,15.11,13.38,35.36,30.07,54.53,17.26,29.04-19.41-59.39-57.48-29.48-101.56,22.03-32.48,77.75-16.14,91.04,4.91,3.69,5.85-4.51,20.62-11.3,17.26-14.97-7.4-26.32-17.3-43.09-15.57-8.57.88-12.95,9.25-12.12,15.27,2.94,21.35,57.1,46.88,37.67,86.54Z"/>
  <path class="st0" d="M2007.17,3674.61c-4.46,9.37-54.26-17.98-80.63,22.06-13.08,19.86-13.69,47.91,1.47,65.39,33.81,38.96,76.82-3.01,77.01,28.13.14,22.34-77.78,23.43-104.14-18.84-17.28-27.71-20.15-65.45,1.79-92.04,35.22-42.69,103.32-25.68,105.32-21.3,1.78,3.9,1.6,11.5-.82,16.6Z"/>
  <path class="st0" d="M1056.2,3421.47c8.56,8.38-4.5,26.24-12.5,20.53l-42.38-30.21c-14.06,16.95-22.54,35.9-39.41,48.43-5.13,3.81-21.92-8.88-20.6-15.62l88.02-120.66,71.33,52.29c2.89,3.99-8.97,17.36-13.51,15.77-19.87-6.95-33.27-28.66-47.08-26.88-7.55.97-20.54,14.45-20.34,25.37,5.8,11.52,23.6,18.35,36.49,30.97Z"/>
  <path class="st0" d="M2079.14,3800.37l-8.47-123.04-43.24-1.21c-5.53-.15-6.56-20.64-1.17-21.9l113.54-9.54,2.67,24.58-45.05,4.37,11.58,125.13-29.85,1.61Z"/>
  <path class="st0" d="M3649.21,2539.24l-120.25-32.36c-8.17,9.26-8.59,22.47-11.77,34.92-5.62,3.38-25.26-3.86-23.74-9.67l26.12-99.98c8.26-3.09,23.81,2.31,23.1,7.71-1.79,13.63-8.65,23.14-5.73,38.49l118.56,31.6c2.61,5.59,1.17,15.62-6.29,29.29Z"/>
  <path class="st0" d="M1506.67,3730.66c-9.52.79-18.09-2.15-28.19-6.45l30.84-106.38c6.74-23.25-21.95-19.02-32.68-27.3-4.37-3.37.02-22.56,6.25-20.84l104.63,28.82c3.62,6.74,1.14,17.56-3.41,24.89l-41.71-11.18-35.74,118.44Z"/>
  <path class="st0" d="M778.95,3304.81c-11.94-7-15.57-14.59-21.14-24.43l95.67-98.46c4.77-4.91,11.79-4.01,15.32-3.4,4.67.8,15.57,13.06,12.28,16.6l-102.13,109.69Z"/>
  <g>
    <path class="st0" d="M2692.91,2105.04l-37.83,52.54c-27.74,38.52-32.54,87.2-46.57,133.5-41.03-30-88.62-28.47-125.41,2.77-32.55,27.64-51.28,67.21-57.9,113.72-55.8-36.39-81.91-93.07-126.01-136.1l-100.71-98.26c-4.23-4.13-10.09-19.93-3.42-21.74,95.91-25.93,165.11-70.72,164.81-173.61,59.48-5.77,135.05-24.85,138.68-73.1l78.04-24.97c8.84-2.83,17.25-12.13,20.31-18.88,3.82-8.42-2.1-19.54-11.14-32.32l77.73-31.7c9.73-3.97,18.72-10.29,21.28-18.61,3.29-10.71-1.13-20.91-13.73-35.45l219.29-177.12,246.43-176.27,94.97-80.52c81.91-69.45,151.92-142.99,228.19-222.11-32.16,63.51-73.89,116.17-117.82,169.35l-100.87,122.11-81.01,88.78-174.59,180.33c80.9-48.16,140.46-115.93,206.1-179.1l130.8-147.96c62.3-70.48,110.86-145.59,160.66-230.02-11.23,94.46-56.64,171.89-98.47,250.94-50.81,96-109.73,184.13-179.98,266.2-21.44,7.89-34.69,21.69-33.83,44.83l-87.88,92.81c-18.05,19.06-40.32,26.42-50.14,54.28-7.52,21.31-23.75,40.04-36.42,58.58l-63.37,92.75c-8.98-19.41-14.72-32.71-27.84-34.45-39.64-5.23-54.14,40.85-67.61,91.9-32.38-13.12-60.62.19-76.84,25.3-12.86,19.9-17.15,38.22-14.5,67.83-20.07-11.36-40.96-13.5-53.39,3.75ZM2419.83,2193.62l227.87-200.58c35.26-31.03,65.81-61.72,96.42-97.07l61.73-71.29c8.74-10.09,16.63-18.93,11.17-34.73l-50.31,26.94c-132.15,104.46-259.15,213.39-373.45,337.13-30.12,32.61-58.95,63.72-72.72,106.06,42.5-14,69.72-40.45,99.28-66.47Z"/>
    <path class="st0" d="M2518.48,2786.18l-104.43-100.11c101.65-22.83,193.14-55.33,274.47-114.37,98.87-74.3,150.42-191.5,73.16-292.64,100.92,25.23,184.38,72.4,264.48,129.06l86.16,67.64,46.71-174.85c19.44-106.34,30.43-209.78,24.98-317.18l-32.66-248c9.31-17.96,18.59-34.57,36.81-45.84,52.26,206.14,63.8,415.95,19.74,621.04-39.69,184.79-100.21,322.3-207,475.78-83.51,120.03-183.09,223.06-302.99,306.46-36.46,25.36-66.09,53.12-110.31,67.46,46.89-48.08,85.88-120.62,90.31-181.82,2.66-36.71-16.36-56.76-40.55-79.73l-118.88-112.92Z"/>
    <path class="st0" d="M1571.91,3201.91l15.68-107.49c4.83-33.13,38.41-54.32,61.04-77.18l41.09-41.51c153.56,149.95,386.35,243.63,604.42,235.7-224.85-26.78-396.42-105.81-566.85-264.17l63.81-60.02c74.5-55.25,161.18-91.93,252.91-107.31,25.8,56.74,110.98,61.27,133.11,100.48,23.91,42.38,47,66.94,89.66,89.8,66.26,35.5,118.94,112.71,123.33,187.47,2.31,39.36,13.13,66.43,49.43,78.67-309.07,119.48-620.74,114.56-923.65-7.29,20.4-11.29,52.59-3.71,56.01-27.16Z"/>
    <path class="st0" d="M1419.23,1258.28c-9.76-4.78-1.32-19.53,6.46-6.04.05.87.55,1.72,1.69,2.47,46.08,30.42,94.81,55.3,150.01,72.04,22.57,6.85,41.35,24.1,51.05,45.86,49.76,111.69,173.5,176.81,237.43,120.31,17.59-15.55,37.42-48.71,25.37-73.71-8.03-16.67-24.94-28.2-36.9-28.77-16.97-.81-37.14,6.09-53.98,20.41-10.41-18.82,6.41-50.69,27.63-56.21,34.33-8.94,69.37,6.72,99.69,15.59,14.05-10.27,29.39-24.69,46.72-25.05-48.97-21.57-83.55,8.07-112.92-1.03,48.08-77.28,143.88-11.71,220.86-44.69-13.99,23.63-33.51,29.67-59.7,43.06,20.27,10.25,34.77,16.79,42.28,34.62l36.56,86.87-31.49-31.03c8.57,56.01,56.9,87.65,115.34,76.66,65.18-12.26,120.95-62.58,150.62-123.66,13.96-28.74,29.47-49.1,61.72-60.49,55-19.42,104.97-44.51,155.78-81.57-26.6,96.02-127.43,82.34-188.67,194.96-81.15,149.24-174.52,103.08-220.08,270.21l-17.79,65.25-41.73,115.28-38.46,99.91,76.61-94.69c20.53,36.67,43.77,62.93,68.84,90.94l50.8,56.74c-46.36-5.38-73.76-26.2-107.84-50.78,21.25,41.62,46.54,71.04,75.73,106.19-9.84,10.02-27.9,21.42-43.15,14.81l-30.94-40.08c-30.11-17.41-44.85-39.9-64.86-70.55-8.83,27.02,9.96,41.7,12.5,62.01-18.37,10.97-26.93,20.01-41.05,37.36-7.72-14.61-9.03-26.87-22.53-34.97,3.11,74.89,18.29,143.89,32.52,216.38l-54.45,46.04-74.09-59.1,23.33-200.09-53.21,164.6c-13.9-46.14-.69-94.8-23.89-138.04l31.09-80.84c.03-4.49-2.85-6.82-3.53-7.18l-55.6,72.74c-48.59,4.19-69.5,36.92-83.66,15.98,25.34-30.71,52.44-60.66,70.99-97.49-39.74,19.63-68.92,46.15-114.16,49.17,51.28-51.16,99.05-95.07,132.71-157.36,20.95,39.01,48.89,75.34,75.97,96.93l-67.57-174.34-33.51-110.27c-18.19-59.84-45.17-106.9-98.2-138.59-118.23-70.66-114.09-171.03-213.33-221.26-37.34-18.9-62.51-48.53-89.04-80.74l-3.93-4.78ZM2123.63,1598.41c19.82-21.22,29.67-47.74,12.83-73.66l-16.72,37.39-29-23.65c-2.93,21.62-1.65,46.21-18.14,63.06-4.76,4.86-18.83-8.91-24.56-19.31-12.77,36.97-35.87,63.22-59.42,102.57-25.57-30.96-55.18-60.74-66.55-108.27l-24.02,28.52c-10.96-19.92-14.4-40.62-15.8-65.15l-35.53,21.73c-4.83-14.37-3.03-24.59-13.95-35.67-12.75,22.21-7.31,45.5,8.07,63.58l22.59-7.02c11.23,24.84,24.52,43.76,43.06,62.52,5.35-4.71,7.43-9.37,9.37-14.23l53.95,78.13c5.99,8.68,5.37,24.96,20.28,27.7,6.84-21.04,17.98-36.35,28.36-52.48l34.25-53.21c4.77,4.32,6.28,9.14,7.2,18.71,23.17-17.88,37.31-40.59,45.68-73.87l18.06,22.61Z"/>
    <path class="st0" d="M1346.37,3141.51c-461.01-287.28-689.53-818.58-583.77-1354.11,18.56,13.49,28.62,26.56,40.64,45.9-37.37,219.91-15.38,444.94,63.75,651.14l83.71-61.31c27.14-19.88,50.32-38.71,78.99-55.59,66.09-38.91,141.2-71.78,207.48-93.04-72.75,87.87-56.83,207.14,27.48,277.79,91.41,76.59,204.26,106.2,326.93,124.83-117.16,28.03-231.01,41-348.41,38.62-96.48-1.95-184.53-27.48-281.88-45.02,190.32,99.36,407.35,94.64,614.47,35.08l-152.36,152.13c-60.83,60.74-160.51,33.13-149.85,115.45,7.35,56.75,43.63,122.49,77.07,162,.94,1.11,4.4,3.89,8.86,6.77-2.58-3.23,2.08,13.19-9.86,2.79,0-.48-1.22-2.74-3.24-3.43Z"/>
    <path class="st0" d="M633.56,1245.75c-6.18-.85-4.23-11.1-4.09-11.1,7.37.11,11.51,5,9.97,8.69l1.52,1.94,83.91,82.74c125.29,123.55,267.81,221.27,427.06,296.69,19.46,9.21,43.57,17.35,56.53,34.63,66.51,88.68,139.38,169.28,228.34,236.43,11.25,32.01,35.15,50.7,71.09,51.36-6,23.63-.83,52.25,24.01,56.82l36.08-8.02c-8.44,17.36-2.42,28.26,6.99,37.11,14.63,13.75,28.06,11.13,51.38,3.62-5.25,12.72-2.72,46.73,14.03,45.99,26.2-1.17,45.33-5.02,62.47,19.27,12.95,18.34,34.46,28.63,57.85,40.94-22.62,119.06-79.82,212.55-174.02,292.74-12.99-11-9.81-23.32-8.75-36.92,4.66-59.94,9.17-123.03-23.41-174.12l-46.88-73.51c-48.28-61.03-109.52-103.68-174.66-145.54-181.85-116.85-323.86-217.64-472.01-379.62-101.04-110.47-178.64-236.35-227.08-375.41l-.3-4.73ZM1684.2,2177.64l-269.08-211.33c-17.51-13.75-36.89-22.84-61.42-27.6,8.49,27.43,32.71,33.56,51.49,48.9l156.35,127.7c39.44,23.9,73.73,56.12,122.66,62.33Z"/>
    <path class="st0" d="M2167.22,2512.35c142.79,96.66,253.86,349.48,220.01,528.94-28.03-52.32-70.73-88.85-124.94-111.87-33.1-14.06-43.77-79.22-114.4-114.4l-60.79-30.28c-20.7-58.9-72.38-98.53-133.95-105.86-40.4-4.81-36.97-57.46-98.67-115.23-60.86-56.99-156.77-72.24-234.31-41.26-16.39,6.55-21.06,19.45-36.79,6.9-8.49-6.77-24.8-22.48-10.67-34.81,105.68-92.2,164.25-152.13,206.84-288.81l19.94-64c3.16-10.13,14.29-16.01,20.96-18.15,45.63-14.64,15.75,91.79,53.17,144.76,33.71,47.72,86.68,73.86,133.37,114.75-38.74,52.63-140.42,86.69-162.36,43.75-7.36-14.41-8-35.63,5.28-47.13,9.67-8.38,26.86-9.69,37.34-3.32,7.4,4.5,12.03,15.8,21.16,30.11,8.2-13.52,7.11-32.27-3.5-45.19-8.68-10.57-28.34-16.81-47.37-14.67-25.93,2.91-42.94,29.05-46.91,50.55-4.92,26.62,8.82,55.84,34.56,68.98,40.17,20.51,88.35,9.56,124.71-15.6l65.77-45.5,100.17,83.72c12.25,10.24,18.09,14.6,31.38,23.59Z"/>
    <path class="st0" d="M2116.63,1258.93c-117.35,34.96-177.22-24.92-280.11,49.25-26.14,18.85-53.82,28.95-62.38,58.93-8.9,31.15-9.64,65.64,9.31,92.39,32.93-8.27,51.35-44.54,68.41-29.9,4.72,4.05,6.86,15.54,2.23,24.59-27.88,54.45-136.35,23.63-196.91-98.19-13.73-27.62-32.96-47.45-62.37-61.74,50.02-132.89,167.39-230.87,293.64-259.62,205.96-46.9,403.96,53.69,486.45,259.38-28.35,14.38-49.67,34.74-61.94,62.73-43.82,99.88-147.85,147.43-166.63,107.62l-38.64-81.92c-6.03-12.8-12.77-23.66-24.54-34.89,22.04-24.49,38.47-49.54,33.5-88.63Z"/>
    <path class="st0" d="M1545.88,2400.89c-52.3-105.32-160.98-194.69-258.17-253.44l-192.38-116.31c-155.15-105.2-287.29-233.48-401.36-382.97-139.82-183.24-221.68-401.79-224.11-625.87l119.82,173.84c41.73,115.91,79.08,228.5,155.85,328.98,80.11,118.58,180.93,214.33,291.35,305.59,96.35,79.63,198.74,142.38,302.9,210.08,133.27,86.6,243.47,198.36,206.08,360.11Z"/>
    <path class="st0" d="M1283.61,1368.41c-7.44-15.22-25.52-22.81-42.32-31.88-94.58-51.11-206.74-109.51-161.88-224.31,36.95,51.39,77.52,92.37,129.48,124.19l64.38,39.43c20.47,38.24,39.55,55.21,18.43,64.09,1.56,30.08,26.68,55.28,37.44,82.73,7.11,18.12,9.12,30.79,21.49,46.64l73.45,94.07c18.75,24.02,51.83,32.58,69.09,46.04,23.88,31.18,43.03,49.81,80.44,67.99,25.34,12.32,48.83,34.99,77.38,47.04,23.69,10,40.24,25.1,66.94,31.92,27.01,6.9,49.89,35.75,75.38,49.91-11.99,48.06-50.13,74.78-93.02,83.35,12.66-30.93,19.08-53.71,24.07-85.29-33.73,36.43-65.16,63.88-116.12,70.94l19.65-38.84c11.79-23.3,27.87-44.05,29.6-71.71-38.85,39.11-79.93,76.91-135.37,69.74,32.36-38.57,59.86-68.6,74.85-112.26-46.19,37.82-106.1,76.33-163.27,59.32l32.9-27.24,58.34-73.39-84.57,41c-34.3,16.63-74.45,14.63-101.79-7.41,41.2-29.29,82.39-54.1,112.39-94.24-103.05,29.17-158.12,79.15-235.12-3.3,59.54-12.66,110.07-29.68,161.07-56.21l-135.16,5.47c-56.21,2.27-109.74-9.32-152.71-53.51,77.14-2.04,152.18-3.73,227.5-24.04l-170.83-20.64c-74.33-8.98-159.63-34.9-188.38-102.39l211.24,50.12,7.01-4.2c-77.43-37.72-171.74-80.43-186.27-173.17l99.21,62.88c62.78,29.58,122.87,53.78,190.46,70.96l4.61-3.82ZM1290.82,1374.42l-8.5,2.09c2.53,4.18,8.07,2.86,8.5-2.09ZM1182.43,1417l-8.29,1.44c2.67,3.48,7.07,2.55,8.29-1.44Z"/>
    <path class="st0" d="M2268.15,1696.15l31.01,23.35c-28.73,12.35-57.29,17.31-91.03,9.33l12.78,22.02c-26.23,11.44-41.23,27.14-60.78,45.29l23.4-103.79c6.31-27.98,22.71-47.77,44.02-65.21l92.84-75.97,62.99-87.48c29.9-41.52,54.81-79.67,100.82-105.39,43.69-27.56,82.1-60.87,99.78-111.56,47.8-28.25,91.42-59.5,128.37-100.44,25.2-30.27,47.16-59.46,59.72-93.77,7.09,5.1,12.89,4.49,12.95,6.58l.52,17.55c1.06,35.68,4.95,76.78-21.77,103.29l-35.8,35.53-165.82,114.74c39.54-3.36,64.26-28.93,99.65-43.75-7.16,26.75-24.78,45.69-45.73,58.86l-90.09,56.63c44.12-4.49,78.17-20.15,118.02-36.61-31.87,85.26-110.76,66.64-159.79,106.82,40.97-.13,74.4-1.26,112.16-19.05-26.06,76.93-102.64,50.34-166.5,79.99l100.18,9.28c-20.24,26.67-49.94,35.42-82.72,39.01l-68.05,7.45c20.79,17.69,41.58,17.54,66.41,27.45-33.65,26.02-73.27,27.87-121.58,24.91,4.48,18.24,23.45,21.18,44.18,30.81-27.68,22.51-63.67,21.37-96.11,19.29l-4.05,4.82ZM2269.13,1689.04c-2.5-4.01-8.08-2.78-8.79,1.9l8.79-1.9Z"/>
    <path class="st0" d="M1398.05,1319.63l-98.64-64.59c-79.08-51.78-144.39-95.61-105.04-209.84,34.65,78.67,89.73,142.22,165.76,183.66,25.26,13.77,35.68,28.05,44.52,54.47,18.51,55.34,115.52,78.07,151.29,131.28l89.85,133.64,111.25,94.06c31.97,27.03,45.55,94.77,51.56,152.19-18.07-18.82-27.62-38.21-56.57-40l.5-23.79c-29.75,3.34-56.78,3.34-77.38-18.97,11.28-8.55,25.86-6.59,32.49-23.66-36.23,6.68-71.84,6.98-108.56-13.89,19.32-12.01,37.31-11.86,48.52-31.47-47.06,1.28-88.64.56-124.3-26.57,25.76-9.69,46.59-10.61,67.7-27.39l-89.3-10.52c-25.25-2.97-46.53-15.26-61.53-35.77,36.62.2,68.07.1,99.38-9.74l-81.8-19.38c-36.41-8.63-65.33-22.38-83.36-56.81,42.25,8.44,77.99,19.43,122.58,17.88-66.63-41.04-147.37-28.8-173.5-116.01,43.51,22.39,78.42,42.38,125.29,44.16l-84.36-49.87c-25.23-14.92-50.38-32.61-52.95-69.33,29.7,16.49,51.47,32.54,81.48,41.26l5.12-4.99ZM1408.58,1325.2l-11.84,3.19c11.02,7.41,7.73-2.25,11.84-3.19Z"/>
    <path class="st0" d="M1401.56,3129.76c-7.6-4.1-10.99-11.91-11.64-15.82-.68-4.15,2.78-11.66,6.83-16.36l33.78-39.18c16.53-19.18,37.67-34.09,39.71-63-44.47,20.86-75.88,53.16-113.94,86.28-35.51-48.13-66.49-131.08-32.56-136.82,48.91-8.27,88.07-32.05,127.78-62.9l132.1,143.82-30.93,57.76-9.94,94.08c-1.38,13.1-27.49,13.46-37.73,7.94l-103.46-55.8Z"/>
    <path class="st0" d="M2502.49,3182.03c-17.22,10.38-51.93,18.96-65.8,4.45-18.8-19.67-4.84-51.27,2.85-72.62,37.5-104.21,49.02-206.07,31.55-320.32l172.62,162.71c-5.67,94.28-60.52,177.13-141.22,225.78ZM2592.42,3007.94c0-19.37-15.71-35.07-35.09-35.07s-35.09,15.7-35.09,35.07,15.71,35.07,35.09,35.07,35.09-15.7,35.09-35.07Z"/>
    <path class="st0" d="M2454.95,2531.98l-173.97-145.29c-35.42-29.58-60.78-62.49-88.47-99.27l-69.77-92.66-45.01-71.18c-5.31-8.4,17.86-30.84,25.23-25.01l100.26,123.6,68.69,64.12c65.68,80.76,132.25,159.27,220.18,211.16l-37.14,34.53Z"/>
    <path class="st0" d="M1754.28,2866.88c-17.24,1.16-34-6.05-51.12-13.55l-18.93-195.16c21.51-26.28,41.31-50.2,73.97-68.39l19.05,255.8c.59,7.92-15.67,20.81-22.98,21.3Z"/>
    <path class="st0" d="M2337.24,2671.1c-6.13-5.31,2.3-11.52,5.89-5,.44.88,1.32,1.69,1.81,2.15l86.9,82.19c25.96,111.88,31.07,232.87-15.33,337.84,19.64-145.6-6.66-290.03-74.26-414.38-2.05-1.06-4.01-2.35-5.01-2.8Z"/>
    <path class="st0" d="M1700.09,2918.49l-208.23-45.08c-5.84-1.26-10.64-6.16-12.44-8.99-2.88-4.53-.26-12.24,5.35-17.38l40.96-37.49c18.73-17.15,32.21-32.94,50.16-57.54l8.89,101.68,145.49,36.26-30.18,28.54Z"/>
    <path class="st0" d="M1611.88,2827.27c-12.41-27.56-7.98-63.19-12.21-92.9l63.39-59.27,13.2,169.97c-19.46-1.95-47.83-2.18-64.38-17.8Z"/>
    <path class="st0" d="M2249.51,2406.37l-131.03-22.69-8.25-93.73c-.88-10.02,5.07-19.06,12.05-21.8,5.68-2.24,17.3-.62,22.61,6.88l67.74,95.69c8.86,12.52,29.41,13.26,36.88,35.66Z"/>
    <path class="st0" d="M1830.95,2796.64c1.18,13.52-18.55,27.86-31.93,28.94l-9.05-161.23-8.89-100.15c15.32,2.01,20.58,9.07,30.91,14.88l18.96,217.56Z"/>
    <path class="st0" d="M1947.63,2714.66l-88.47,68.17-15.31-175.97c33.32,21.04,39.64,53.79,55.63,82.9,7.78,14.17,26.79,17.02,48.15,24.9Z"/>
    <path class="st0" d="M2289.72,2450.37l-77.02,53.66-103.77-91.16c62.49,3.26,119.7,19.22,180.79,37.5Z"/>
    <path class="st0" d="M1607.12,3008.22l-65.03-77.08c-7.13-8.45-21.56-9.84-22.57-27.86l153.82,38.87-66.21,66.07Z"/>
    <path class="st0" d="M2087.03,2392.17c-25.06-6.81-39.89-22.39-55.36-42.01,16.37-19.59,31.48-34.9,54.85-45.12l.52,87.13Z"/>
    <path class="st0" d="M2101.32,2226.14c5.27,9.85-6.9,25.94-18.28,27.29l-20.32-80.03c16.26,15.7,26.76,30.62,38.6,52.74Z"/>
    <rect class="st0" x="1810.36" y="1795.99" width="4.27" height="4.27" transform="translate(-740.5922 1809.0405) rotate(-45.0169)"/>
    <path class="st0" d="M2259.15,1885.22c-40.19-5.66-70.38-34.59-80.82-77.08,46.67-53.34,102.98-48.17,136.22-88.2,31.81-9.3,61.35-24.5,84.3-49.09,35.13-4.08,60.61-26.6,72.94-59.27l54.59-23.23,79.8-101.36c16.4-20.83,18.53-39.53,30.46-61.81l41.8-78.11c3.19-5.96-3.2-13.81-9.72-19.62,8.16-12.67,12.13-38.12,26.21-47.42l62.2-41.09c53.42-35.29,99.84-75.58,136.94-128.27,40.22,105.73-67.66,178.74-162.04,223.9-17.69,8.46-34.94,15.58-47.91,35.61,53.51-6.01,102.75-26.55,153.43-50.13,49.15-22.86,95.44-43.08,136.55-82.66,4.13,79.49-89.85,131.54-162.18,164.59l-8.99,6.81c-4.02,3.04-2.54,5.64.3,6.26,5.34,1.17,10.25-3.78,12.32-4.11,65.28-10.42,124.74-22.88,191.36-43.98-30.21,79.25-130.26,97.18-216.23,105.59l-139.56,13.65c30.25,10.82,56.2,17.62,84.22,19.28l141.16,8.4c-37.5,40.78-93.14,54.09-149.05,51.96l-128.96-4.91c52.78,28.73,107.59,48.6,165.4,55.61-48.51,40.01-95.88,55.84-152.49,35.22l-90.47-32.94c31.62,44.55,69.47,68.3,109.85,95.84-30.96,19.53-70.84,23.25-105.27,5.32l-78.3-40.78c19.52,42.81,51.93,67.93,90.12,101.31-49.59,21.99-108.84-16.59-162.07-54.27,16.07,44.49,45.16,71.45,76.41,108.54-36.27,7-71-9.35-99.23-33.24l-31-26.23-5.3,5c7.12,34.12,31.74,57.26,46.07,95.75-50.17-10.42-88.33-35.81-116.69-75.54l18.71,81.47c.85.71,1.96,1.28,2.71,1.53,6.85,3.89.06,12.4-5.22,6.02-.4-.89-1.58-2.69-2.58-4.3ZM2786,1417.68l-3.94.11,3.94.11h4.08l3.94-.11-3.94-.11h-4.08ZM2316.17,1767.56c-.33,2.95-10.37,1.5-2.8,10.35l2.8-10.35Z"/>
    <rect class="st0" x="2245.28" y="2043.5" width="4.27" height="4.27" transform="translate(-788.1883 2189.2131) rotate(-45.0169)"/>
    <rect class="st0" x="2257.36" y="2405.72" width="4.27" height="4.27" transform="translate(-1040.8501 2303.9253) rotate(-45.0169)"/>
    <polygon class="st0" points="2786 1417.68 2790.08 1417.68 2794.03 1417.79 2790.08 1417.9 2786 1417.9 2782.06 1417.79 2786 1417.68"/>
  </g>
</svg>